ply
format ascii 1.0
comment VCGLIB generated
element vertex 480
property float x
property float y
property float z
property float nx
property float ny
property float nz
element face 880
property list uchar int vertex_indices
end_header
0 0 0.488037 -0.8946185 -9.483222e-09 0.4468307 
0.003906 0.042188 0.476326 0.3984726 0.6414211 0.6555903 
0.003906 -0.042188 0.476326 0.3984725 -0.6414211 0.6555902 
0.010742 0 0.575333 -0.9716691 2.537065e-09 0.2363454 
0.0125 0.056251 0.450561 -0.1102544 0.9724174 -0.2055441 
0.0125 -0.056251 0.450561 -0.1102544 -0.9724174 -0.2055441 
0.019531 0 0.413654 -0.8628315 -5.130822e-09 -0.5054917 
0.021094 0.042188 0.424797 -0.4360069 0.4330143 -0.7889212 
0.021094 -0.042188 0.424797 -0.4360069 -0.4330143 -0.7889212 
0.025 0 0.413086 -0.48109 -3.045695e-08 -0.8766712 
0.03875 0.19625 0.488037 -0.8944881 0.4420038 -0.06725843 
0.03875 -0.19625 0.488037 -0.8944881 -0.4420038 -0.06725845 
0.039063 0 0.66803 -0.9354772 2.528101e-09 0.3533869 
0.04866 0.192034 0.575333 -0.9041402 0.3728829 0.2085395 
0.04866 -0.192034 0.575333 -0.9041402 -0.3728829 0.2085395 
0.056768 0.188584 0.413654 -0.8293272 0.3366782 -0.4459417 
0.056768 -0.188584 0.413654 -0.8293272 -0.3366782 -0.4459417 
0.0625 0 0.358795 -0.7017776 0 -0.7123961 
0.074785 0.180918 0.66803 -0.8697166 0.3587295 0.3389781 
0.074785 -0.180918 0.66803 -0.8697166 -0.3587296 0.3389781 
0.079102 0 0.764481 -0.9123849 5.04799e-09 0.4093334 
0.096406 0.171719 0.358795 -0.6701776 0.2724972 -0.6903674 
0.096406 -0.171719 0.358795 -0.6701776 -0.2724972 -0.6903675 
0.1 0 0.769043 0.007846986 0 -0.9999692 
0.103906 0.042188 0.777779 0.006421064 0.6412169 -0.7673329 
0.103906 -0.042188 0.777779 0.006421064 -0.6412169 -0.7673329 
0.105469 0 0.32156 -0.712958 0 -0.7012067 
0.111721 0.165203 0.764481 -0.8455834 0.3492753 0.4037269 
0.111721 -0.165203 0.764481 -0.8455834 -0.3492753 0.4037269 
0.1125 0.056251 0.796997 -0.002605666 0.9710682 0.2387879 
0.1125 -0.056251 0.796997 -0.002605665 -0.9710682 0.2387879 
0.121094 0.042188 0.816215 -0.009350137 0.4274721 0.9039801 
0.121094 -0.042188 0.816215 -0.009350139 -0.4274721 0.9039801 
0.125 0 0.300049 -0.7403616 0 -0.6722088 
0.125 0 0.824951 -0.01049073 0 0.999945 
0.125 0 0.863037 -0.8498178 -4.548664e-08 0.5270767 
0.136045 0.154853 0.32156 -0.6438766 0.2693471 -0.716153 
0.136045 -0.154853 0.32156 -0.6438766 -0.2693471 -0.716153 
0.137695 0 0.881027 -0.5942693 -2.334281e-07 0.8042662 
0.145 0.355 0.488037 -0.7054962 0.7054955 -0.06746313 
0.145 -0.355 0.488037 -0.7054962 -0.7054955 -0.06746313 
0.149219 0 0.887024 0.4002449 2.816067e-07 0.9164082 
0.15 0 0.863037 0.9650853 2.047854e-07 -0.2619357 
0.152627 0.347373 0.575333 -0.6955353 0.6955353 0.1801701 
0.152627 -0.347373 0.575333 -0.6955353 -0.6955353 0.1801701 
0.154062 0.147187 0.300049 -0.701583 0.2368988 -0.6720567 
0.154062 0.147187 0.863037 -0.8000538 0.3278457 0.5024253 
0.154062 -0.147187 0.300049 -0.701583 -0.2368988 -0.6720567 
0.154062 -0.147187 0.863037 -0.800047 -0.3278426 0.502438 
0.154883 0 0.881027 0.9693932 4.114407e-07 0.2455135 
0.158867 0.341133 0.413654 -0.6530114 0.6530098 -0.3836071 
0.158867 -0.341133 0.413654 -0.6530113 -0.6530098 -0.383607 
0.165774 0.142205 0.881027 -0.6110176 0.2397337 0.7544436 
0.165774 -0.142204 0.881027 -0.6110135 -0.239734 0.7544469 
0.172734 0.327266 0.66803 -0.668933 0.668933 0.3241253 
0.172734 -0.327266 0.66803 -0.668933 -0.668933 0.3241253 
0.175 0 0.863037 -0.5205132 0 0.8538536 
0.176404 0.137682 0.887024 0.1320277 -0.1081625 0.9853271 
0.176404 -0.137681 0.887024 0.1320329 0.1081661 0.985326 
0.177125 0.137375 0.863037 0.865169 -0.4275059 -0.2621477 
0.177125 -0.137375 0.863037 0.8651641 0.427503 -0.2621683 
0.181629 0.135459 0.881027 0.9184798 -0.3102086 0.2452864 
0.181629 -0.135458 0.881027 0.9184818 0.3102108 0.245276 
0.189375 0.310625 0.358795 -0.5266258 0.5266244 -0.667332 
0.189375 -0.310625 0.358795 -0.5266258 -0.5266245 -0.667332 
0.200187 0.127562 0.863037 -0.4663882 0.2303232 0.8540686 
0.200187 -0.127562 0.863037 -0.4663882 -0.2303232 0.8540687 
0.201162 0.298838 0.764481 -0.6487585 0.6487586 0.3977745 
0.201162 -0.298838 0.764481 -0.6487585 -0.6487586 0.3977745 
0.210938 0 0.884945 -0.2972439 1.26326e-09 0.9548016 
0.219883 0.280117 0.32156 -0.482911 0.4829102 -0.7304758 
0.219883 -0.280117 0.32156 -0.4829109 -0.4829102 -0.7304758 
0.23334 0.113457 0.884945 -0.3323754 0.1249964 0.9348275 
0.23334 -0.113457 0.884945 -0.3323754 -0.1249964 0.9348275 
0.23375 0.26625 0.300049 -0.5225452 0.5225438 -0.6737169 
0.23375 0.26625 0.863037 -0.6215169 0.6215177 0.4768987 
0.23375 -0.26625 0.300049 -0.5225453 -0.5225438 -0.6737169 
0.23375 -0.26625 0.863037 -0.6215076 -0.6215082 0.4769233 
0.242764 0.257238 0.881027 -0.5053074 0.5053065 0.699521 
0.242764 -0.257235 0.881027 -0.5052817 -0.505283 0.6995566 
0.250945 0.249056 0.887024 -0.05707507 0.05707528 0.9967371 
0.250945 -0.249054 0.887024 -0.05707297 -0.05707432 0.9967372 
0.2515 0.2485 0.863037 0.6822335 -0.6822327 -0.2628989 
0.2515 -0.2485 0.863037 0.6822243 0.6822243 -0.2629449 
0.254967 0.245034 0.881027 0.6853667 -0.6853595 0.2460787 
0.254967 -0.245033 0.881027 0.6853726 0.6853741 0.246022 
0.26925 0.23075 0.863037 -0.3669657 0.3669637 0.8547946 
0.26925 -0.23075 0.863037 -0.3669657 -0.3669637 0.8547946 
0.29375 0 0.900055 -0.1692587 0 0.9855717 
0.294766 0.205234 0.884945 -0.2908545 0.2908529 0.9114869 
0.294766 -0.205234 0.884945 -0.2908544 -0.2908529 0.9114869 
0.30375 0.46125 0.488037 -0.4420041 0.8944881 -0.06725557 
0.30375 -0.46125 0.488037 -0.4420041 -0.8944882 -0.06725558 
0.307966 0.45134 0.575333 -0.3728833 0.9041403 0.2085387 
0.307966 -0.45134 0.575333 -0.3728834 -0.9041403 0.2085387 
0.309734 0.080953 0.900055 -0.1586062 0.06501354 0.9851991 
0.309734 -0.080953 0.900055 -0.1586062 -0.06501354 0.9851992 
0.311416 0.443233 0.413654 -0.3366779 0.8293275 -0.4459414 
0.311416 -0.443233 0.413654 -0.3366779 -0.8293275 -0.4459414 
0.319082 0.425215 0.66803 -0.3587308 0.8697165 0.3389771 
0.319082 -0.425215 0.66803 -0.3587308 -0.8697165 0.3389772 
0.328281 0.403594 0.358795 -0.2724969 0.6701766 -0.6903686 
0.328281 -0.403594 0.358795 -0.2724969 -0.6701766 -0.6903686 
0.334797 0.388279 0.764481 -0.349276 0.8455822 0.403729 
0.334797 -0.388279 0.764481 -0.349276 -0.8455822 0.403729 
0.345146 0.363955 0.32156 -0.2693462 0.6438733 -0.7161561 
0.345146 -0.363955 0.32156 -0.2693462 -0.6438733 -0.7161561 
0.352812 0.345937 0.300049 -0.2368976 0.7015751 -0.6720653 
0.352812 0.345937 0.863037 -0.3278559 0.8000715 0.5023902 
0.352812 -0.345937 0.300049 -0.2368976 -0.7015751 -0.6720653 
0.352812 -0.345937 0.863037 -0.3278393 -0.8000388 0.5024533 
0.353562 0.146438 0.900055 -0.1228186 0.1228182 0.9848002 
0.353562 -0.146438 0.900055 -0.1228186 -0.1228182 0.9848002 
0.357795 0.334229 0.881027 -0.2397487 0.6110546 0.754409 
0.357795 -0.334224 0.881027 -0.2397318 -0.6110054 0.7544541 
0.362318 0.323599 0.887024 0.1081486 -0.131989 0.9853339 
0.362318 -0.323595 0.887024 0.108174 0.1320447 0.9853236 
0.362625 0.322875 0.863037 0.4275146 -0.8651838 -0.2620847 
0.362625 -0.322875 0.863037 0.4275045 0.8651658 -0.2621603 
0.364542 0.318373 0.881027 0.3102071 -0.9184569 0.2453743 
0.364542 -0.318371 0.881027 0.3102123 0.9184911 0.2452396 
0.372437 0.299813 0.863037 -0.2303263 0.4663892 0.8540673 
0.372437 -0.299813 0.863037 -0.2303263 -0.4663892 0.8540673 
0.385938 0 0.915394 -0.277323 3.119923e-09 0.9607767 
0.386543 0.266661 0.884945 -0.1249979 0.3323759 0.9348271 
0.386543 -0.266661 0.884945 -0.1249979 -0.3323759 0.9348271 
0.394777 0.044769 0.915394 -0.2276164 0.1001743 0.9685844 
0.394777 -0.044769 0.915394 -0.2276165 -0.1001743 0.9685845 
0.414844 0 1.03776 -0.9434264 0 0.3315822 
0.41875 0 1.00793 -0.8654458 -1.569452e-08 -0.5010026 
0.419016 0.080984 0.915394 -0.155654 0.1556555 0.9754707 
0.419016 -0.080984 0.915394 -0.155654 -0.1556555 0.9754707 
0.419047 0.190266 0.900055 -0.06501342 0.1586052 0.9851993 
0.419047 -0.190266 0.900055 -0.06501342 -0.1586052 0.9851993 
0.421414 0.033513 1.03776 -0.8055831 0.3909877 0.4451567 
0.421414 -0.033513 1.03776 -0.8055831 -0.3909878 0.4451566 
0.425021 0.03197 1.00793 -0.8449314 0.3397501 -0.4131112 
0.425021 -0.03197 1.00793 -0.8449314 -0.3397501 -0.4131112 
0.43946 0.06054 1.03776 -0.5595604 0.5595458 0.6113924 
0.43946 -0.06054 1.03776 -0.5595604 -0.5595459 0.6113924 
0.442242 0.057758 1.00793 -0.6699393 0.6699234 -0.3199748 
0.442242 -0.057758 1.00793 -0.6699393 -0.6699235 -0.3199749 
0.45 0 0.937988 -0.8060498 2.287358e-09 0.5918477 
0.450781 0 0.971153 -0.9760094 -5.371337e-09 -0.2177284 
0.453875 0.019625 0.937988 -0.7641224 0.2578523 0.5912945 
0.453875 -0.019625 0.937988 -0.7641224 -0.2578523 0.5912945 
0.454586 0.019348 0.971153 -0.8652278 0.3665961 -0.3420352 
0.454586 -0.019348 0.971153 -0.8652278 -0.3665962 -0.3420352 
0.45523 0.105222 0.915394 -0.1001731 0.2276163 0.9685846 
0.45523 -0.105222 0.915394 -0.1001731 -0.2276163 0.9685846 
0.4645 0.0355 0.937988 -0.5697743 0.5697861 0.5922002 
0.4645 -0.0355 0.937988 -0.5697743 -0.5697861 0.5922002 
0.465028 0.034972 0.971153 -0.6276083 0.627607 -0.4606703 
0.465028 -0.034972 0.971153 -0.6276083 -0.6276071 -0.4606703 
0.466487 0.078587 1.03776 -0.3909985 0.8055789 0.4451548 
0.466487 -0.078587 1.03776 -0.3909985 -0.8055789 0.4451548 
0.46803 0.07498 1.00793 -0.3397472 0.8449272 -0.4131221 
0.46803 -0.07498 1.00793 -0.3397473 -0.8449272 -0.4131221 
0.480375 0.046124 0.937988 -0.25784 0.7641303 0.5912897 
0.480375 -0.046124 0.937988 -0.25784 -0.7641302 0.5912898 
0.480652 0.045414 0.971153 -0.3665762 0.8652312 -0.342048 
0.480652 -0.045414 0.971153 -0.3665762 -0.8652312 -0.342048 
0.5 0 1.05005 -1.882587e-09 4.000496e-09 1 
0.5 0.049218 0.971153 -6.982699e-08 0.9760063 -0.2177419 
0.5 0.049999 0.937988 -4.345998e-08 0.8060542 0.5918417 
0.5 0.08125 1.00793 -5.754632e-08 0.8654391 -0.5010141 
0.5 0.085157 1.03776 -2.691354e-08 0.943431 0.3315691 
0.5 0.114062 0.915394 -2.495938e-09 0.2773204 0.9607774 
0.5 0.20625 0.900055 -1.242491e-09 0.1692574 0.9855719 
0.5 0.289063 0.884945 9.979762e-08 0.2972441 0.9548016 
0.5 0.325001 0.863037 3.07083e-07 0.5205177 0.8538508 
0.5 0.34512 0.881027 -6.063277e-08 -0.9693657 0.245622 
0.5 0.35 0.863037 2.123705e-07 -0.9651192 -0.2618108 
0.5 0.350785 0.887024 -2.465901e-07 -0.4001778 0.9164375 
0.5 0.362308 0.881027 1.718669e-07 0.5943122 0.8042344 
0.5 0.375 0.300049 4.743755e-07 0.740353 -0.6722183 
0.5 0.375 0.863037 4.017973e-07 0.8498626 0.5270044 
0.5 0.394531 0.32156 3.567048e-07 0.7129522 -0.7012126 
0.5 0.420898 0.764481 1.792037e-07 0.9123832 0.4093372 
0.5 0.4375 0.358795 7.049192e-08 0.7017766 -0.7123971 
0.5 0.460938 0.66803 2.275292e-08 0.9354767 0.3533884 
0.5 0.480469 0.413654 -5.130825e-09 0.8628308 -0.5054929 
0.5 0.489258 0.575333 -2.537065e-09 0.9716699 0.2363423 
0.5 0.5 0.488037 -1.159088e-08 0.9977391 -0.06720629 
0.5 -0.049218 0.971153 -8.056961e-08 -0.9760064 -0.217742 
0.5 -0.049999 0.937988 -3.888524e-08 -0.8060542 0.5918417 
0.5 -0.08125 1.00793 -7.847226e-08 -0.8654391 -0.5010141 
0.5 -0.085157 1.03776 -2.691354e-08 -0.943431 0.3315691 
0.5 -0.114062 0.915394 2.495938e-09 -0.2773204 0.9607774 
0.5 -0.20625 0.900055 -1.242491e-09 -0.1692574 0.9855719 
0.5 -0.289063 0.884945 1.035874e-07 -0.2972442 0.9548015 
0.5 -0.325001 0.863037 3.07083e-07 -0.5205177 0.8538508 
0.5 -0.345118 0.881027 -6.929245e-08 0.9694058 0.2454635 
0.5 -0.35 0.863037 2.047856e-07 0.9650919 -0.2619113 
0.5 -0.35078 0.887024 -2.557431e-07 0.4003222 0.9163744 
0.5 -0.362303 0.881027 1.616025e-07 -0.5942742 0.8042625 
0.5 -0.375 0.300049 4.743755e-07 -0.740353 -0.6722183 
0.5 -0.375 0.863037 4.043264e-07 -0.8497971 0.52711 
0.5 -0.394531 0.32156 3.567048e-07 -0.7129522 -0.7012126 
0.5 -0.420898 0.764481 1.817277e-07 -0.9123832 0.4093372 
0.5 -0.4375 0.358795 7.552705e-08 -0.7017766 -0.7123971 
0.5 -0.460938 0.66803 1.769672e-08 -0.9354768 0.3533884 
0.5 -0.480469 0.413654 -5.130825e-09 -0.8628307 -0.505493 
0.5 -0.489258 0.575333 -5.074131e-09 -0.9716699 0.2363423 
0.5 -0.5 0.488037 -1.931813e-08 -0.9977391 -0.06720628 
0.519348 0.045414 0.971153 0.3665764 0.8652311 -0.3420481 
0.519348 -0.045414 0.971153 0.3665764 -0.8652311 -0.3420481 
0.519625 0.046124 0.937988 0.25784 0.7641302 0.5912897 
0.519625 -0.046124 0.937988 0.25784 -0.7641302 0.5912897 
0.53197 0.07498 1.00793 0.3397475 0.8449271 -0.4131221 
0.53197 -0.07498 1.00793 0.3397475 -0.8449271 -0.4131221 
0.533513 0.078587 1.03776 0.3909987 0.8055789 0.4451546 
0.533513 -0.078587 1.03776 0.3909987 -0.8055789 0.4451546 
0.534972 0.034972 0.971153 0.6276087 0.6276068 -0.4606702 
0.534972 -0.034972 0.971153 0.6276087 -0.6276068 -0.4606702 
0.5355 0.0355 0.937988 0.5697745 0.5697859 0.5922002 
0.5355 -0.0355 0.937988 0.5697745 -0.5697859 0.5922002 
0.54477 0.105222 0.915394 0.1001733 0.2276163 0.9685846 
0.54477 -0.105222 0.915394 0.1001733 -0.2276163 0.9685846 
0.545414 0.019348 0.971153 0.8652278 0.3665962 -0.342035 
0.545414 -0.019348 0.971153 0.8652279 -0.3665962 -0.3420351 
0.546125 0.019625 0.937988 0.7641222 0.2578524 0.5912946 
0.546125 -0.019625 0.937988 0.7641222 -0.2578524 0.5912946 
0.549219 0 0.971153 0.9760094 0 -0.2177282 
0.55 0 0.937988 0.8060496 -2.287358e-09 0.591848 
0.557758 0.057758 1.00793 0.6699395 0.6699232 -0.319975 
0.557758 -0.057758 1.00793 0.6699395 -0.6699232 -0.319975 
0.56054 0.06054 1.03776 0.5595606 0.5595457 0.6113923 
0.56054 -0.06054 1.03776 0.5595607 -0.5595457 0.6113923 
0.574979 0.03197 1.00793 0.8449312 0.3397504 -0.4131112 
0.574979 -0.03197 1.00793 0.8449312 -0.3397504 -0.4131112 
0.578586 0.033513 1.03776 0.8055832 0.3909878 0.4451565 
0.578586 -0.033513 1.03776 0.8055832 -0.3909878 0.4451565 
0.580953 0.190266 0.900055 0.06501375 0.158605 0.9851993 
0.580953 -0.190266 0.900055 0.06501375 -0.158605 0.9851993 
0.580984 0.080984 0.915394 0.1556543 0.155656 0.9754707 
0.580984 -0.080984 0.915394 0.1556543 -0.155656 0.9754707 
0.58125 0 1.00793 0.8654457 0 -0.5010028 
0.585156 0 1.03776 0.9434264 6.728353e-09 0.3315822 
0.605223 0.044769 0.915394 0.2276165 0.1001745 0.9685844 
0.605223 -0.044769 0.915394 0.2276165 -0.1001745 0.9685844 
0.613457 0.266661 0.884945 0.1249983 0.3323767 0.9348269 
0.613457 -0.266661 0.884945 0.1249983 -0.3323766 0.9348269 
0.614062 0 0.915394 0.277323 -1.871954e-09 0.9607767 
0.627562 0.299813 0.863037 0.2303269 0.4663917 0.8540657 
0.627562 -0.299813 0.863037 0.230327 -0.4663917 0.8540657 
0.635459 0.318373 0.881027 -0.3102081 -0.9184573 0.2453717 
0.635459 -0.318371 0.881027 -0.3102133 0.9184914 0.2452369 
0.637375 0.322875 0.863037 -0.4275172 -0.8651859 -0.2620733 
0.637375 -0.322875 0.863037 -0.4275071 0.865168 -0.2621488 
0.637682 0.323599 0.887024 -0.1081539 -0.1319965 0.9853322 
0.637682 -0.323595 0.887024 -0.1081792 0.1320523 0.985322 
0.642205 0.334229 0.881027 0.2397496 0.6110568 0.7544069 
0.642205 -0.334224 0.881027 0.2397327 -0.6110078 0.754452 
0.646437 0.146438 0.900055 0.1228184 0.1228182 0.9848002 
0.646437 -0.146438 0.900055 0.1228184 -0.1228182 0.9848002 
0.647187 0.345937 0.300049 0.2368974 0.7015754 -0.6720652 
0.647187 0.345937 0.863037 0.3278565 0.8000733 0.5023871 
0.647187 -0.345937 0.300049 0.2368974 -0.7015755 -0.6720652 
0.647187 -0.345937 0.863037 0.3278397 -0.8000405 0.5024502 
0.654853 0.363955 0.32156 0.2693453 0.6438733 -0.7161566 
0.654853 -0.363955 0.32156 0.2693453 -0.6438733 -0.7161566 
0.665203 0.388279 0.764481 0.3492754 0.8455821 0.4037297 
0.665203 -0.388279 0.764481 0.3492754 -0.8455821 0.4037298 
0.671719 0.403594 0.358795 0.2724962 0.6701759 -0.6903696 
0.671719 -0.403594 0.358795 0.2724962 -0.6701759 -0.6903696 
0.680918 0.425215 0.66803 0.3587308 0.8697165 0.3389772 
0.680918 -0.425215 0.66803 0.3587308 -0.8697165 0.3389772 
0.688584 0.443233 0.413654 0.3366779 0.8293275 -0.4459415 
0.688584 -0.443233 0.413654 0.336678 -0.8293275 -0.4459416 
0.690266 0.080953 0.900055 0.158606 0.06501404 0.9851991 
0.690266 -0.080953 0.900055 0.158606 -0.06501404 0.9851991 
0.692034 0.45134 0.575333 0.3728833 0.9041403 0.2085388 
0.692034 -0.45134 0.575333 0.3728833 -0.9041403 0.2085388 
0.69625 0.46125 0.488037 0.4420041 0.8944882 -0.06725554 
0.69625 -0.46125 0.488037 0.4420041 -0.8944881 -0.06725554 
0.705234 0.205234 0.884945 0.2908562 0.2908543 0.9114859 
0.705234 -0.205234 0.884945 0.2908562 -0.2908543 0.9114859 
0.70625 0 0.900055 0.1692587 6.212457e-10 0.9855717 
0.73075 0.23075 0.863037 0.3669684 0.3669658 0.8547925 
0.73075 -0.23075 0.863037 0.3669684 -0.3669658 0.8547925 
0.745033 0.245034 0.881027 -0.685367 -0.6853601 0.2460763 
0.745033 -0.245033 0.881027 -0.6853729 0.6853746 0.2460196 
0.7485 0.2485 0.863037 -0.6822355 -0.6822338 -0.2628915 
0.7485 -0.2485 0.863037 -0.6822261 0.6822253 -0.2629375 
0.749055 0.249056 0.887024 0.05707329 0.05707305 0.9967373 
0.749055 -0.249054 0.887024 0.05707127 -0.05707214 0.9967374 
0.757236 0.257238 0.881027 0.5053121 0.5053105 0.6995149 
0.757236 -0.257235 0.881027 0.5052862 -0.5052869 0.6995505 
0.76625 0.26625 0.300049 0.5225419 0.5225421 -0.6737208 
0.76625 0.26625 0.863037 0.621518 0.6215183 0.4768967 
0.76625 -0.26625 0.300049 0.5225419 -0.5225421 -0.6737207 
0.76625 -0.26625 0.863037 0.6215087 -0.6215086 0.4769214 
0.76666 0.113457 0.884945 0.3323775 0.1249978 0.9348266 
0.76666 -0.113457 0.884945 0.3323775 -0.1249978 0.9348266 
0.780117 0.280117 0.32156 0.4829089 0.482909 -0.7304778 
0.780117 -0.280117 0.32156 0.4829089 -0.482909 -0.7304778 
0.789062 0 0.884945 0.2972457 2.526522e-09 0.954801 
0.798838 0.298838 0.764481 0.6487582 0.6487584 0.3977754 
0.798838 -0.298838 0.764481 0.6487583 -0.6487584 0.3977754 
0.799812 0.127562 0.863037 0.4663928 0.2303247 0.8540658 
0.799812 -0.127562 0.863037 0.4663928 -0.2303247 0.8540658 
0.810625 0.310625 0.358795 0.5266254 0.5266243 -0.6673324 
0.810625 -0.310625 0.358795 0.5266254 -0.5266243 -0.6673325 
0.818371 0.135459 0.881027 -0.9184797 -0.3102086 0.2452865 
0.818371 -0.135458 0.881027 -0.9184818 0.3102109 0.245276 
0.822875 0.137375 0.863037 -0.8651688 -0.4275058 -0.2621484 
0.822875 -0.137375 0.863037 -0.8651639 0.4275029 -0.2621692 
0.823596 0.137682 0.887024 -0.1320271 -0.1081623 0.9853272 
0.823596 -0.137681 0.887024 -0.1320323 0.1081659 0.9853261 
0.825 0 0.863037 0.5205182 0 0.8538506 
0.827266 0.327266 0.66803 0.668933 0.668933 0.3241254 
0.827266 -0.327266 0.66803 0.668933 -0.668933 0.3241254 
0.834226 0.142205 0.881027 0.6110239 0.2397364 0.7544377 
0.834226 -0.142204 0.881027 0.6110197 -0.2397366 0.7544411 
0.841133 0.341133 0.413654 0.6530113 0.6530098 -0.3836071 
0.841133 -0.341133 0.413654 0.6530113 -0.6530098 -0.3836071 
0.845117 0 0.881027 -0.9693931 3.984484e-07 0.2455137 
0.845937 0.147187 0.300049 0.7015752 0.2368973 -0.6720655 
0.845937 0.147187 0.863037 0.8000567 0.3278474 0.5024197 
0.845937 -0.147187 0.300049 0.7015752 -0.2368973 -0.6720655 
0.845937 -0.147187 0.863037 0.8000499 -0.3278442 0.5024325 
0.847373 0.347373 0.575333 0.6955352 0.6955354 0.1801702 
0.847373 -0.347373 0.575333 0.6955353 -0.6955353 0.1801702 
0.85 0 0.863037 -0.9650847 2.047854e-07 -0.2619379 
0.850781 0 0.887024 -0.400243 2.739955e-07 0.916409 
0.855 0.355 0.488037 0.7054962 0.7054955 -0.06746313 
0.855 -0.355 0.488037 0.7054962 -0.7054955 -0.06746313 
0.862305 0 0.881027 0.594274 -2.334286e-07 0.8042626 
0.863955 0.154853 0.32156 0.6438731 0.2693453 -0.7161568 
0.863955 -0.154853 0.32156 0.6438731 -0.2693452 -0.7161567 
0.875 0 0.300049 0.7403526 0 -0.6722187 
0.875 0 0.863037 0.8498232 -4.801365e-08 0.5270677 
0.888279 0.165203 0.764481 0.8455821 0.3492754 0.4037297 
0.888279 -0.165203 0.764481 0.8455821 -0.3492754 0.4037297 
0.894531 0 0.32156 0.7129519 5.024011e-09 -0.701213 
0.903594 0.171719 0.358795 0.6701776 0.2724972 -0.6903674 
0.903594 -0.171719 0.358795 0.6701776 -0.2724972 -0.6903675 
0.920898 0 0.764481 0.912383 -5.047992e-09 0.4093374 
0.925 0 0.413086 0.4094384 -1.560354e-08 -0.9123378 
0.925 0 0.618896 -0.2362303 0 0.9716971 
0.925 0.092813 0.445244 0.3577308 0.5339435 -0.7661155 
0.925 0.092813 0.586738 -0.1297928 0.7607673 0.6359142 
0.925 0.123751 0.515991 0.1319019 0.9823643 -0.1325225 
0.925 -0.092813 0.445244 0.3577308 -0.5339435 -0.7661155 
0.925 -0.092813 0.586738 -0.1297928 -0.7607673 0.6359141 
0.925 -0.123751 0.515991 0.1319019 -0.9823643 -0.1325225 
0.925215 0.180918 0.66803 0.8697165 0.3587308 0.3389772 
0.925215 -0.180918 0.66803 0.8697165 -0.3587308 0.3389772 
0.9375 0 0.358795 0.7017776 -5.035139e-09 -0.7123961 
0.943232 0.188584 0.413654 0.8293273 0.3366783 -0.4459417 
0.943232 -0.188584 0.413654 0.8293273 -0.3366783 -0.4459417 
0.95134 0.192034 0.575333 0.9041403 0.3728833 0.2085388 
0.95134 -0.192034 0.575333 0.9041403 -0.3728833 0.2085388 
0.960938 0 0.66803 0.9354768 2.528103e-09 0.3533882 
0.96125 0.19625 0.488037 0.8944882 0.4420037 -0.06725849 
0.96125 -0.19625 0.488037 0.8944881 -0.4420037 -0.0672585 
0.980469 0 0.413654 0.8628315 0 -0.5054916 
0.989258 0 0.575333 0.9716699 -5.074131e-09 0.2363424 
1 0 0.488037 0.9977389 0 -0.06720959 
1.04492 0 0.646503 -0.6327154 0 0.7743843 
1.05408 0.083804 0.622637 -0.3254603 0.6585033 0.678564 
1.05408 -0.083804 0.622637 -0.3254602 -0.6585032 0.678564 
1.07422 0.111739 0.570131 0.1850444 0.9777998 0.09831644 
1.07422 -0.111739 0.570131 0.1850444 -0.9777998 0.09831645 
1.09436 0.083804 0.517625 0.5861151 0.6311833 -0.5080124 
1.09436 -0.083804 0.517625 0.5861151 -0.6311834 -0.5080124 
1.09687 0 0.71286 -0.8915737 0 0.4528756 
1.10352 0 0.493759 0.6012917 -1.360831e-08 -0.7990296 
1.10859 0.063985 0.698941 -0.6075439 0.6369168 0.4745814 
1.10859 -0.063985 0.698941 -0.6075439 -0.6369168 0.4745814 
1.12539 0 0.79327 -0.8709056 0 0.4914503 
1.13437 0.085313 0.66832 0.154351 0.9725462 0.1741542 
1.13437 -0.085313 0.66832 0.1543509 -0.9725462 0.1741542 
1.13967 0.044165 0.788218 -0.6920894 0.5646846 0.4496037 
1.13967 -0.044165 0.788218 -0.6920894 -0.5646847 0.4496037 
1.16016 0.063985 0.637698 0.7394997 0.6340058 -0.2262227 
1.16016 -0.063985 0.637698 0.7394997 -0.6340058 -0.2262228 
1.17109 0.058887 0.777105 -0.06146821 0.9770759 0.2038244 
1.17109 -0.058887 0.777105 -0.06146822 -0.9770759 0.2038244 
1.17188 0 0.623779 0.9260567 0 -0.3773845 
1.175 0 0.863037 -0.6934035 0 0.7205495 
1.19297 0 0.8732 -0.3953122 -5.19834e-09 0.9185469 
1.19844 0.035156 0.863037 -0.4160138 0.6623421 0.6230854 
1.19844 -0.035156 0.863037 -0.4160138 -0.6623421 0.6230854 
1.2 0 0.863037 0.6764103 0 -0.7365251 
1.20251 0.044165 0.765992 0.653899 0.7137177 -0.251044 
1.20251 -0.044165 0.765992 0.653899 -0.7137177 -0.251044 
1.20625 0 0.876587 0.185434 -1.788863e-08 0.9826567 
1.21016 0 0.8732 0.9420775 -1.610606e-08 -0.3353951 
1.21563 0.021094 0.863037 0.5038004 -0.6981633 -0.508678 
1.21563 -0.021094 0.863037 0.5038004 0.6981633 -0.508678 
1.2168 0 0.76094 0.8100972 0 -0.5862957 
1.21807 0.032959 0.873741 -0.2487629 0.4884929 0.8363562 
1.21807 -0.032959 0.873741 -0.2487629 -0.4884929 0.8363561 
1.22981 0.028125 0.87746 0.04511185 -0.1108217 0.992816 
1.22981 -0.028125 0.87746 0.04511183 0.1108217 0.992816 
1.23016 0.023291 0.873967 0.4547754 -0.8435677 0.2856095 
1.23016 -0.023291 0.873967 0.4547754 0.8435677 0.2856095 
1.25 0.028125 0.863037 0.07246704 -0.9902467 0.1189961 
1.25 0.046875 0.863037 0.02827816 0.9874442 0.1554163 
1.25 -0.028125 0.863037 0.07246703 0.9902467 0.1189961 
1.25 -0.046875 0.863037 0.02827816 -0.9874442 0.1554163 
1.27329 0.043945 0.874933 0.02476727 0.8616521 0.5068947 
1.27329 -0.043945 0.874933 0.02476727 -0.8616521 0.5068947 
1.27417 0.031055 0.875654 -0.02121888 -0.7674384 0.6407714 
1.27417 -0.031055 0.875654 -0.02121889 0.7674384 0.6407714 
1.28164 0.0375 0.879379 -0.003672156 0.1038709 0.994584 
1.28164 -0.0375 0.879379 -0.003672157 -0.1038709 0.994584 
1.28437 0.021094 0.863037 -0.2453001 -0.6857831 0.685222 
1.28437 -0.021094 0.863037 -0.2453001 0.6857832 0.6852221 
1.3 0 0.863037 -0.3704512 0 0.9288519 
1.30156 0.035156 0.863037 0.4540342 0.7222848 -0.5216872 
1.30156 -0.035156 0.863037 0.4540342 -0.7222848 -0.5216872 
1.31818 0.023291 0.877342 -0.2263245 -0.4049493 0.8858857 
1.31818 -0.023291 0.877342 -0.2263245 0.4049493 0.8858856 
1.325 0 0.863037 0.5340148 0 -0.8454752 
1.32851 0.032959 0.876125 0.4833661 0.8498219 -0.2101431 
1.32851 -0.032959 0.876125 0.4833661 -0.8498219 -0.2101431 
1.33347 0.028125 0.881299 0.3282126 0.3624186 0.8723127 
1.33347 -0.028125 0.881299 0.3282126 -0.3624185 0.8723127 
1.33818 0 0.878109 -0.262681 -5.081487e-09 0.9648827 
1.35361 0 0.876667 0.7879534 0 -0.6157349 
1.35703 0 0.882171 0.6385303 0 0.7695968 
-0.016797 0 0.768166 0.04115053 0 -0.999153 
-0.020276 0.042188 0.776765 0.03838081 0.4261857 -0.9038211 
-0.020276 -0.042188 0.776765 0.03838081 -0.4261858 -0.9038211 
-0.02793 0.056251 0.795683 0.009753268 0.9707534 -0.2398808 
-0.02793 -0.056251 0.795683 0.009753267 -0.9707534 -0.2398808 
-0.035583 0.042188 0.814601 -0.04168131 0.6413364 0.7661268 
-0.035583 -0.042188 0.814601 -0.04168131 -0.6413364 0.7661268 
-0.039063 0 0.8232 -0.05634765 -3.807193e-09 0.9984112 
-0.080078 0 0.538757 0.6742949 -5.125108e-09 0.7384622 
-0.082733 0.042188 0.529498 0.5146074 0.5562618 0.6524968 
-0.082733 -0.042188 0.529498 0.5146074 -0.5562618 0.6524968 
-0.088574 0.056251 0.509128 -0.00690206 0.9998314 0.017019 
-0.088574 -0.056251 0.509128 -0.006902096 -0.9998314 0.01701896 
-0.094415 0.042188 0.488759 -0.4834011 0.5571263 -0.6752286 
-0.094415 -0.042188 0.488759 -0.4834011 -0.5571263 -0.6752286 
-0.09707 0 0.4795 -0.5408573 -2.553825e-08 -0.8411143 
-0.103125 0 0.762024 0.1542753 2.552411e-09 -0.9880279 
-0.111426 0.042188 0.769668 0.1762084 0.547089 -0.8183179 
-0.111426 -0.042188 0.769668 0.1762084 -0.547089 -0.8183179 
-0.129688 0.056251 0.786484 0.02363663 0.9996913 0.007654234 
-0.129688 -0.056251 0.786484 0.02363663 -0.9996913 0.007654247 
-0.134375 0 0.600098 0.8450188 -2.578446e-09 0.5347367 
-0.141943 0.042188 0.592611 0.6497825 0.5894725 0.4799009 
-0.141943 -0.042188 0.592611 0.6497825 -0.5894725 0.4799009 
-0.147949 0.042188 0.8033 -0.1995177 0.5607964 0.8035547 
-0.147949 -0.042188 0.8033 -0.1995178 -0.5607964 0.8035547 
-0.15625 0 0.810943 -0.3177896 -1.545828e-08 0.9481612 
-0.156641 0 0.745354 0.5336697 -5.443007e-09 -0.845693 
-0.158594 0.056251 0.576141 -0.0003517389 0.9998043 0.01978105 
-0.158594 -0.056251 0.576141 -0.0003517448 -0.9998043 0.01978104 
-0.165234 0 0.661621 0.9596828 -5.188812e-09 0.2810853 
-0.167566 0.042188 0.750404 0.5359036 0.6092563 -0.5844777 
-0.167566 -0.042188 0.750404 0.5359036 -0.6092563 -0.5844777 
-0.175 0 0.712891 0.9639766 0 -0.2659872 
-0.175244 0.042188 0.559671 -0.6220226 0.588822 -0.5161168 
-0.175244 -0.042188 0.559671 -0.6220226 -0.5888219 -0.5161169 
-0.175885 0.042188 0.656723 0.7402088 0.6143189 0.273319 
-0.175885 -0.042188 0.656723 0.7402088 -0.6143189 0.2733191 
-0.182812 0 0.552185 -0.7226807 5.156751e-09 -0.691182 
-0.186719 0.042188 0.712891 0.7692497 0.6342446 -0.07738728 
-0.186719 -0.042188 0.712891 0.7692497 -0.6342446 -0.07738729 
-0.191602 0.056251 0.761515 0.03921596 0.9979922 0.04973715 
-0.191602 -0.056251 0.761515 0.03921597 -0.9979922 0.04973716 
-0.199316 0.056251 0.645947 -0.005361809 0.9996601 0.02551412 
-0.199316 -0.056251 0.645947 -0.005361832 -0.9996601 0.02551412 
-0.2125 0.056251 0.712891 0.003742914 0.9988714 0.04734836 
-0.2125 -0.056251 0.712891 0.003742903 -0.9988714 0.04734836 
-0.215637 0.042188 0.772625 -0.5398869 0.6247829 0.5640643 
-0.215637 -0.042188 0.772625 -0.539887 -0.6247829 0.5640643 
-0.222748 0.042188 0.63517 -0.7375791 0.6160453 -0.2765236 
-0.222748 -0.042188 0.63517 -0.7375791 -0.6160452 -0.2765236 
-0.226562 0 0.777676 -0.8192167 -1.100146e-08 0.5734841 
-0.233398 0 0.630272 -0.9023125 2.08682e-08 -0.4310827 
-0.238281 0.042188 0.712891 -0.771053 0.6307461 0.08738775 
-0.238281 -0.042188 0.712891 -0.771053 -0.6307461 0.08738776 
-0.25 0 0.712891 -0.9998739 1.065217e-08 -0.01588276 
3 324 317 304 
3 324 304 306 
3 306 304 281 
3 306 281 283 
3 281 246 248 
3 281 248 283 
3 246 171 172 
3 246 172 248 
3 325 308 304 
3 325 304 317 
3 308 285 281 
3 308 281 304 
3 281 285 250 
3 281 250 246 
3 246 250 173 
3 246 173 171 
3 328 313 308 
3 328 308 325 
3 313 287 285 
3 313 285 308 
3 285 287 252 
3 285 252 250 
3 250 252 174 
3 250 174 173 
3 332 319 313 
3 332 313 328 
3 319 290 287 
3 319 287 313 
3 287 290 257 
3 287 257 252 
3 252 257 176 
3 252 176 174 
3 172 171 119 
3 172 119 117 
3 117 119 84 
3 117 84 82 
3 84 61 59 
3 84 59 82 
3 61 49 42 
3 61 42 59 
3 173 115 119 
3 173 119 171 
3 115 80 84 
3 115 84 119 
3 84 80 57 
3 84 57 61 
3 61 57 41 
3 61 41 49 
3 174 113 115 
3 174 115 173 
3 113 78 80 
3 113 80 115 
3 80 78 52 
3 80 52 57 
3 57 52 38 
3 57 38 41 
3 176 108 113 
3 176 113 174 
3 108 75 78 
3 108 78 113 
3 78 75 46 
3 78 46 52 
3 52 46 35 
3 52 35 38 
3 42 49 62 
3 42 62 60 
3 60 62 85 
3 60 85 83 
3 85 120 118 
3 85 118 83 
3 120 192 193 
3 120 193 118 
3 41 58 62 
3 41 62 49 
3 58 81 85 
3 58 85 62 
3 85 81 116 
3 85 116 120 
3 120 116 194 
3 120 194 192 
3 38 53 58 
3 38 58 41 
3 53 79 81 
3 53 81 58 
3 81 79 114 
3 81 114 116 
3 116 114 195 
3 116 195 194 
3 35 48 53 
3 35 53 38 
3 48 77 79 
3 48 79 53 
3 79 77 110 
3 79 110 114 
3 114 110 197 
3 114 197 195 
3 193 192 247 
3 193 247 249 
3 249 247 282 
3 249 282 284 
3 282 305 307 
3 282 307 284 
3 305 317 324 
3 305 324 307 
3 194 251 247 
3 194 247 192 
3 251 286 282 
3 251 282 247 
3 282 286 309 
3 282 309 305 
3 305 309 325 
3 305 325 317 
3 195 253 251 
3 195 251 194 
3 253 288 286 
3 253 286 251 
3 286 288 314 
3 286 314 309 
3 309 314 328 
3 309 328 325 
3 197 259 253 
3 197 253 195 
3 259 292 288 
3 259 288 253 
3 288 292 321 
3 288 321 314 
3 314 321 332 
3 314 332 328 
3 338 333 319 
3 338 319 332 
3 333 298 290 
3 333 290 319 
3 290 298 262 
3 290 262 257 
3 257 262 178 
3 257 178 176 
3 354 347 333 
3 354 333 338 
3 347 311 298 
3 347 298 333 
3 298 311 266 
3 298 266 262 
3 262 266 180 
3 262 180 178 
3 358 352 347 
3 358 347 354 
3 352 322 311 
3 352 311 347 
3 311 322 272 
3 311 272 266 
3 266 272 182 
3 266 182 180 
3 359 355 352 
3 359 352 358 
3 355 326 322 
3 355 322 352 
3 322 326 274 
3 322 274 272 
3 272 274 183 
3 272 183 182 
3 178 103 108 
3 178 108 176 
3 103 67 75 
3 103 75 108 
3 75 67 27 
3 75 27 46 
3 46 27 20 
3 46 20 35 
3 180 99 103 
3 180 103 178 
3 99 54 67 
3 99 67 103 
3 67 54 18 
3 67 18 27 
3 27 18 12 
3 27 12 20 
3 182 93 99 
3 182 99 180 
3 93 43 54 
3 93 54 99 
3 54 43 13 
3 54 13 18 
3 18 13 3 
3 18 3 12 
3 183 91 93 
3 183 93 182 
3 91 39 43 
3 91 43 93 
3 43 39 10 
3 43 10 13 
3 13 10 0 
3 13 0 3 
3 20 28 48 
3 20 48 35 
3 28 68 77 
3 28 77 48 
3 77 68 104 
3 77 104 110 
3 110 104 199 
3 110 199 197 
3 12 19 28 
3 12 28 20 
3 19 55 68 
3 19 68 28 
3 68 55 100 
3 68 100 104 
3 104 100 201 
3 104 201 199 
3 3 14 19 
3 3 19 12 
3 14 44 55 
3 14 55 19 
3 55 44 94 
3 55 94 100 
3 100 94 203 
3 100 203 201 
3 0 11 14 
3 0 14 3 
3 11 40 44 
3 11 44 14 
3 44 40 92 
3 44 92 94 
3 94 92 204 
3 94 204 203 
3 199 263 259 
3 199 259 197 
3 263 299 292 
3 263 292 259 
3 292 299 334 
3 292 334 321 
3 321 334 338 
3 321 338 332 
3 201 267 263 
3 201 263 199 
3 267 312 299 
3 267 299 263 
3 299 312 348 
3 299 348 334 
3 334 348 354 
3 334 354 338 
3 203 273 267 
3 203 267 201 
3 273 323 312 
3 273 312 267 
3 312 323 353 
3 312 353 348 
3 348 353 358 
3 348 358 354 
3 204 275 273 
3 204 273 203 
3 275 327 323 
3 275 323 273 
3 323 327 356 
3 323 356 353 
3 353 356 359 
3 353 359 358 
3 359 357 350 
3 359 350 355 
3 355 350 315 
3 355 315 326 
3 315 268 274 
3 315 274 326 
3 268 181 183 
3 268 183 274 
3 357 349 336 
3 357 336 350 
3 350 336 302 
3 350 302 315 
3 302 264 268 
3 302 268 315 
3 264 179 181 
3 264 181 268 
3 349 335 329 
3 349 329 336 
3 336 329 295 
3 336 295 302 
3 295 260 264 
3 295 264 302 
3 260 177 179 
3 260 179 264 
3 335 331 318 
3 335 318 329 
3 329 318 289 
3 329 289 295 
3 289 256 260 
3 289 260 295 
3 256 175 177 
3 256 177 260 
3 183 181 97 
3 183 97 91 
3 91 97 50 
3 91 50 39 
3 50 15 10 
3 50 10 39 
3 15 6 0 
3 15 0 10 
3 181 179 101 
3 181 101 97 
3 97 101 63 
3 97 63 50 
3 63 21 15 
3 63 15 50 
3 21 17 6 
3 21 6 15 
3 179 177 105 
3 179 105 101 
3 101 105 70 
3 101 70 63 
3 70 36 21 
3 70 21 63 
3 36 26 17 
3 36 17 21 
3 177 175 107 
3 177 107 105 
3 105 107 74 
3 105 74 70 
3 74 45 36 
3 74 36 70 
3 45 33 26 
3 45 26 36 
3 0 6 16 
3 0 16 11 
3 11 16 51 
3 11 51 40 
3 51 98 92 
3 51 92 40 
3 98 202 204 
3 98 204 92 
3 6 17 22 
3 6 22 16 
3 16 22 64 
3 16 64 51 
3 64 102 98 
3 64 98 51 
3 102 200 202 
3 102 202 98 
3 17 26 37 
3 17 37 22 
3 22 37 71 
3 22 71 64 
3 71 106 102 
3 71 102 64 
3 106 198 200 
3 106 200 102 
3 26 33 47 
3 26 47 37 
3 37 47 76 
3 37 76 71 
3 76 109 106 
3 76 106 71 
3 109 196 198 
3 109 198 106 
3 204 202 269 
3 204 269 275 
3 275 269 316 
3 275 316 327 
3 316 351 356 
3 316 356 327 
3 351 357 359 
3 351 359 356 
3 202 200 265 
3 202 265 269 
3 269 265 303 
3 269 303 316 
3 303 337 351 
3 303 351 316 
3 337 349 357 
3 337 357 351 
3 200 198 261 
3 200 261 265 
3 265 261 296 
3 265 296 303 
3 296 330 337 
3 296 337 303 
3 330 335 349 
3 330 349 337 
3 198 196 258 
3 198 258 261 
3 261 258 291 
3 261 291 296 
3 291 320 330 
3 291 330 296 
3 320 331 335 
3 320 335 330 
3 23 424 425 
3 23 425 24 
3 24 425 427 
3 24 427 29 
3 29 427 429 
3 29 429 31 
3 31 429 431 
3 31 431 34 
3 440 441 425 
3 440 425 424 
3 441 443 427 
3 441 427 425 
3 443 448 429 
3 443 429 427 
3 448 450 431 
3 448 431 429 
3 451 455 441 
3 451 441 440 
3 455 465 443 
3 455 443 441 
3 465 471 448 
3 465 448 443 
3 471 475 450 
3 471 450 448 
3 457 463 455 
3 457 455 451 
3 463 469 465 
3 463 465 455 
3 469 477 471 
3 469 471 465 
3 477 479 475 
3 477 475 471 
3 431 430 32 
3 431 32 34 
3 430 428 30 
3 430 30 32 
3 428 426 25 
3 428 25 30 
3 426 424 23 
3 426 23 25 
3 431 450 449 
3 431 449 430 
3 430 449 444 
3 430 444 428 
3 428 444 442 
3 428 442 426 
3 426 442 440 
3 426 440 424 
3 450 475 472 
3 450 472 449 
3 449 472 466 
3 449 466 444 
3 444 466 456 
3 444 456 442 
3 442 456 451 
3 442 451 440 
3 475 479 478 
3 475 478 472 
3 472 478 470 
3 472 470 466 
3 466 470 464 
3 466 464 456 
3 456 464 457 
3 456 457 451 
3 454 460 463 
3 454 463 457 
3 460 467 469 
3 460 469 463 
3 467 473 477 
3 467 477 469 
3 473 476 479 
3 473 479 477 
3 445 446 460 
3 445 460 454 
3 446 452 467 
3 446 467 460 
3 452 458 473 
3 452 473 467 
3 458 462 476 
3 458 476 473 
3 432 433 446 
3 432 446 445 
3 433 435 452 
3 433 452 446 
3 435 437 458 
3 435 458 452 
3 437 439 462 
3 437 462 458 
3 0 1 433 
3 0 433 432 
3 1 4 435 
3 1 435 433 
3 4 7 437 
3 4 437 435 
3 7 9 439 
3 7 439 437 
3 479 476 474 
3 479 474 478 
3 478 474 468 
3 478 468 470 
3 470 468 461 
3 470 461 464 
3 464 461 454 
3 464 454 457 
3 476 462 459 
3 476 459 474 
3 474 459 453 
3 474 453 468 
3 468 453 447 
3 468 447 461 
3 461 447 445 
3 461 445 454 
3 462 439 438 
3 462 438 459 
3 459 438 436 
3 459 436 453 
3 453 436 434 
3 453 434 447 
3 447 434 432 
3 447 432 445 
3 439 9 8 
3 439 8 438 
3 438 8 5 
3 438 5 436 
3 436 5 2 
3 436 2 434 
3 434 2 0 
3 434 0 432 
3 340 360 361 
3 340 361 342 
3 342 361 363 
3 342 363 343 
3 343 363 365 
3 343 365 341 
3 341 365 368 
3 341 368 339 
3 360 367 369 
3 360 369 361 
3 361 369 372 
3 361 372 363 
3 363 372 376 
3 363 376 365 
3 365 376 380 
3 365 380 368 
3 367 371 374 
3 367 374 369 
3 369 374 378 
3 369 378 372 
3 372 378 386 
3 372 386 376 
3 386 392 380 
3 386 380 376 
3 381 383 374 
3 381 374 371 
3 383 400 378 
3 383 378 374 
3 400 412 386 
3 400 386 378 
3 412 416 392 
3 412 392 386 
3 368 366 344 
3 368 344 339 
3 366 364 346 
3 366 346 344 
3 364 362 345 
3 364 345 346 
3 362 360 340 
3 362 340 345 
3 380 377 366 
3 380 366 368 
3 377 373 364 
3 377 364 366 
3 373 370 362 
3 373 362 364 
3 370 367 360 
3 370 360 362 
3 380 392 387 
3 380 387 377 
3 387 379 373 
3 387 373 377 
3 379 375 370 
3 379 370 373 
3 375 371 367 
3 375 367 370 
3 392 416 413 
3 392 413 387 
3 387 413 402 
3 387 402 379 
3 379 402 384 
3 379 384 375 
3 375 384 381 
3 375 381 371 
3 382 393 383 
3 382 383 381 
3 393 403 400 
3 393 400 383 
3 403 417 412 
3 403 412 400 
3 417 422 416 
3 417 416 412 
3 388 395 393 
3 388 393 382 
3 395 407 403 
3 395 403 393 
3 407 419 417 
3 407 417 403 
3 419 423 422 
3 419 422 417 
3 388 389 397 
3 388 397 395 
3 395 397 405 
3 395 405 407 
3 407 405 414 
3 407 414 419 
3 419 414 421 
3 419 421 423 
3 389 385 390 
3 389 390 397 
3 397 390 399 
3 397 399 405 
3 405 399 409 
3 405 409 414 
3 414 409 411 
3 414 411 421 
3 416 422 418 
3 416 418 413 
3 413 418 404 
3 413 404 402 
3 402 404 394 
3 402 394 384 
3 384 394 382 
3 384 382 381 
3 422 423 420 
3 422 420 418 
3 418 420 408 
3 418 408 404 
3 404 408 396 
3 404 396 394 
3 394 396 388 
3 394 388 382 
3 421 415 420 
3 421 420 423 
3 415 406 408 
3 415 408 420 
3 406 398 396 
3 406 396 408 
3 398 389 388 
3 398 388 396 
3 411 410 415 
3 411 415 421 
3 410 401 406 
3 410 406 415 
3 401 391 398 
3 401 398 406 
3 391 385 389 
3 391 389 398 
3 162 238 231 
3 162 231 227 
3 162 227 211 
3 162 211 166 
3 238 237 229 
3 238 229 231 
3 231 229 225 
3 231 225 227 
3 225 209 211 
3 225 211 227 
3 209 165 166 
3 209 166 211 
3 237 223 219 
3 237 219 229 
3 229 219 213 
3 229 213 225 
3 213 205 209 
3 213 209 225 
3 205 163 165 
3 205 165 209 
3 223 224 221 
3 223 221 219 
3 219 221 215 
3 219 215 213 
3 215 207 205 
3 215 205 213 
3 207 164 163 
3 207 163 205 
3 162 166 154 
3 162 154 138 
3 162 138 134 
3 162 134 128 
3 166 165 156 
3 166 156 154 
3 154 156 140 
3 154 140 138 
3 140 136 134 
3 140 134 138 
3 136 129 128 
3 136 128 134 
3 165 163 160 
3 165 160 156 
3 156 160 152 
3 156 152 140 
3 152 146 136 
3 152 136 140 
3 146 143 129 
3 146 129 136 
3 163 164 158 
3 163 158 160 
3 160 158 150 
3 160 150 152 
3 150 144 146 
3 150 146 152 
3 144 142 143 
3 144 143 146 
3 162 128 135 
3 162 135 139 
3 162 139 155 
3 162 155 187 
3 128 129 137 
3 128 137 135 
3 135 137 141 
3 135 141 139 
3 141 157 155 
3 141 155 139 
3 157 186 187 
3 157 187 155 
3 129 143 147 
3 129 147 137 
3 137 147 153 
3 137 153 141 
3 153 161 157 
3 153 157 141 
3 161 184 186 
3 161 186 157 
3 143 142 145 
3 143 145 147 
3 147 145 151 
3 147 151 153 
3 151 159 161 
3 151 161 153 
3 159 185 184 
3 159 184 161 
3 162 187 212 
3 162 212 228 
3 162 228 232 
3 162 232 238 
3 187 186 210 
3 187 210 212 
3 212 210 226 
3 212 226 228 
3 226 230 232 
3 226 232 228 
3 230 237 238 
3 230 238 232 
3 186 184 206 
3 186 206 210 
3 210 206 214 
3 210 214 226 
3 214 220 230 
3 214 230 226 
3 220 223 237 
3 220 237 230 
3 184 185 208 
3 184 208 206 
3 206 208 216 
3 206 216 214 
3 216 222 220 
3 216 220 214 
3 222 224 223 
3 222 223 220 
3 243 239 221 
3 243 221 224 
3 239 235 215 
3 239 215 221 
3 215 235 217 
3 215 217 207 
3 207 217 167 
3 207 167 164 
3 278 270 239 
3 278 239 243 
3 270 254 235 
3 270 235 239 
3 235 254 233 
3 235 233 217 
3 217 233 168 
3 217 168 167 
3 297 293 270 
3 297 270 278 
3 293 276 254 
3 293 254 270 
3 254 276 241 
3 254 241 233 
3 233 241 169 
3 233 169 168 
3 310 300 293 
3 310 293 297 
3 300 279 276 
3 300 276 293 
3 276 279 244 
3 276 244 241 
3 241 244 170 
3 241 170 169 
3 167 148 158 
3 167 158 164 
3 148 130 150 
3 148 150 158 
3 150 130 126 
3 150 126 144 
3 144 126 123 
3 144 123 142 
3 168 132 148 
3 168 148 167 
3 132 111 130 
3 132 130 148 
3 130 111 95 
3 130 95 126 
3 126 95 88 
3 126 88 123 
3 169 124 132 
3 169 132 168 
3 124 89 111 
3 124 111 132 
3 111 89 72 
3 111 72 95 
3 95 72 69 
3 95 69 88 
3 170 121 124 
3 170 124 169 
3 121 86 89 
3 121 89 124 
3 89 86 65 
3 89 65 72 
3 72 65 56 
3 72 56 69 
3 123 127 145 
3 123 145 142 
3 127 131 151 
3 127 151 145 
3 151 131 149 
3 151 149 159 
3 159 149 188 
3 159 188 185 
3 88 96 127 
3 88 127 123 
3 96 112 131 
3 96 131 127 
3 131 112 133 
3 131 133 149 
3 149 133 189 
3 149 189 188 
3 69 73 96 
3 69 96 88 
3 73 90 112 
3 73 112 96 
3 112 90 125 
3 112 125 133 
3 133 125 190 
3 133 190 189 
3 56 66 73 
3 56 73 69 
3 66 87 90 
3 66 90 73 
3 90 87 122 
3 90 122 125 
3 125 122 191 
3 125 191 190 
3 188 218 208 
3 188 208 185 
3 218 236 216 
3 218 216 208 
3 216 236 240 
3 216 240 222 
3 222 240 243 
3 222 243 224 
3 189 234 218 
3 189 218 188 
3 234 255 236 
3 234 236 218 
3 236 255 271 
3 236 271 240 
3 240 271 278 
3 240 278 243 
3 190 242 234 
3 190 234 189 
3 242 277 255 
3 242 255 234 
3 255 277 294 
3 255 294 271 
3 271 294 297 
3 271 297 278 
3 191 245 242 
3 191 242 190 
3 245 280 277 
3 245 277 242 
3 277 280 301 
3 277 301 294 
3 294 301 310 
3 294 310 297 
